<?xml version="1.0" encoding="utf-8"?>
<!-- Generator: Adobe Illustrator 19.2.1, SVG Export Plug-In . SVG Version: 6.00 Build 0)  -->
<svg version="1.1" xmlns="http://www.w3.org/2000/svg" xmlns:xlink="http://www.w3.org/1999/xlink" x="0px" y="0px"
	 viewBox="0 0 19.7 24.7" style="enable-background:new 0 0 19.7 24.7;" xml:space="preserve">
<style type="text/css">
	.st0{opacity:4.000000e-02;fill:url(#);}
	.st1{fill:#F1F2F2;}
	.st2{fill:#992626;}
	.st3{fill:#FF9933;}
	.st4{fill:#FFFFFF;}
	.st5{fill:#FF3399;}
	.st6{clip-path:url(#SVGID_4_);}
	.st7{fill:#414042;}
	.st8{fill:#F16A5F;}
	.st9{fill:#8A73B4;}
	.st10{fill:#1BB899;}
	.st11{fill:#475F77;}
	.st12{fill:#58595B;}
	.st13{fill:#231F20;}
	.st14{fill:#CC3333;}
	.st15{fill:none;stroke:#939598;stroke-width:0.25;stroke-miterlimit:10;}
	.st16{opacity:0.3;fill:#7A7A7A;}
	.st17{fill:#EF4836;}
	.st18{fill:#F9F4F7;}
	.st19{fill:#E8E8E8;}
	.st20{fill:#ABB7B7;}
	.st21{fill:#EFEFEF;}
	.st22{fill:#F2784B;}
	.st23{fill:#90C695;}
	.st24{fill:#2ECC71;}
	.st25{fill:#446CB3;}
	.st26{fill-rule:evenodd;clip-rule:evenodd;fill:#FF9933;}
	.st27{fill:none;stroke:#231F20;stroke-width:0.25;stroke-miterlimit:10;}
	.st28{fill:#A7A9AC;}
	.st29{fill:none;stroke:#FFFFFF;stroke-width:2;stroke-linecap:round;stroke-linejoin:round;stroke-miterlimit:10;}
	.st30{clip-path:url(#SVGID_6_);}
	.st31{clip-path:url(#SVGID_8_);}
	.st32{clip-path:url(#SVGID_10_);}
	.st33{opacity:0.4;}
	.st34{opacity:0.5;}
	.st35{fill:#E73790;}
	.st36{fill:#B71F39;}
	.st37{clip-path:url(#SVGID_12_);}
	.st38{fill:#D24D57;}
	.st39{fill:#F27935;}
	.st40{fill:#1E8BC3;}
	.st41{fill:#674172;}
	.st42{fill:#95A5A6;}
	.st43{fill:#67809F;}
	.st44{fill:#03C9A9;}
	.st45{fill:#D2527F;}
	.st46{fill:#F89406;}
	.st47{fill:#BF55EC;}
	.st48{fill:#6BB9F0;}
	.st49{fill:#4183D7;}
	.st50{fill:#F7CA18;}
	.st51{fill:#6C7A89;}
	.st52{fill:none;stroke:#D1D3D4;stroke-linecap:round;stroke-miterlimit:10;}
	.st53{fill:none;stroke:#FFFFFF;stroke-linecap:round;stroke-linejoin:round;stroke-miterlimit:10;}
	.st54{fill-rule:evenodd;clip-rule:evenodd;fill:#231F20;}
	.st55{fill-rule:evenodd;clip-rule:evenodd;fill:#CC3333;}
	.st56{fill-rule:evenodd;clip-rule:evenodd;fill:#FFFFFF;}
	.st57{clip-path:url(#SVGID_16_);}
	.st58{clip-path:url(#SVGID_18_);}
	.st59{clip-path:url(#SVGID_20_);}
	.st60{clip-path:url(#SVGID_22_);}
</style>
<g id="backgrounds">
</g>
<g id="art">
</g>
<g id="navigation">
</g>
<g id="assets">
	<g>
		<path class="st56" d="M9.9,23.9c0.7,0,1.3-0.3,1.7-0.7c0.4-0.4,0.6-0.9,0.7-1.5H7.4c0.1,0.6,0.3,1.1,0.7,1.5
			C8.6,23.6,9.2,23.9,9.9,23.9L9.9,23.9z M8.5,5.6c-1.2,0-2.3,0.8-3.2,2C4.2,9,3.6,11,3.6,12.3c0,3.8-0.5,4.9-1.9,7.5
			c-0.2,0.4-0.5,0.9-0.7,1.4h6.2h5.5h6.2c-0.3-0.5-0.5-1-0.7-1.4c-1.3-2.6-1.9-3.6-1.9-7.5c0-1.3-0.7-3.3-1.8-4.8
			c-0.8-1.1-2-2-3.2-2H8.5L8.5,5.6z M11.5,5c1.3,0.1,2.5,1,3.4,2.2c1.2,1.6,1.9,3.7,1.9,5.1c0,3.7,0.5,4.7,1.8,7.2
			c0.3,0.5,0.6,1.1,0.9,1.8c0,0,0,0.1,0,0.1c0,0.2-0.1,0.3-0.3,0.3h-6.3c-0.1,0.7-0.4,1.4-0.9,1.9l0,0c-0.5,0.5-1.3,0.9-2.1,0.9
			s-1.6-0.3-2.1-0.9l0,0c-0.5-0.5-0.8-1.1-0.9-1.9H0.5v0c0,0-0.1,0-0.1,0c-0.1-0.1-0.2-0.2-0.1-0.4c0.3-0.7,0.6-1.3,0.9-1.8
			C2.5,17,3,16,3,12.3c0-1.4,0.7-3.5,1.9-5.1C5.8,6,6.9,5.1,8.2,5V1.2c0-0.3,0.1-0.5,0.3-0.7h0c0.2-0.2,0.4-0.3,0.7-0.3h1.3
			c0.3,0,0.5,0.1,0.7,0.3l0,0h0c0.2,0.2,0.3,0.4,0.3,0.7V5L11.5,5z M10.5,0.8H9.2c-0.1,0-0.2,0-0.3,0.1C8.8,1,8.8,1.1,8.8,1.2V5h2.2
			V1.2c0-0.1,0-0.2-0.1-0.3l0,0C10.8,0.8,10.6,0.8,10.5,0.8z"/>
		<path class="st4" d="M9.9,24.7c-0.9,0-1.7-0.3-2.3-1l0,0c-0.5-0.5-0.8-1.1-0.9-1.8H0.5c-0.1,0-0.2,0-0.2-0.1
			c-0.3-0.1-0.4-0.4-0.2-0.7c0.3-0.7,0.6-1.3,0.9-1.8c1.3-2.5,1.8-3.5,1.8-7.1c0-1.6,0.8-3.7,1.9-5.2C5.4,6.1,6.5,5,8,4.8V1.2
			c0-0.3,0.1-0.6,0.4-0.9l0.1-0.1C8.6,0.1,8.9,0,9.2,0h1.3c0.3,0,0.6,0.1,0.9,0.4c0.2,0.2,0.4,0.5,0.4,0.9v3.6
			c1.5,0.2,2.6,1.3,3.3,2.3c1.1,1.5,1.9,3.7,1.9,5.2c0,3.6,0.5,4.6,1.8,7.1c0.3,0.5,0.6,1.1,0.9,1.8c0,0.1,0.1,0.2,0.1,0.3
			c0,0.3-0.2,0.5-0.5,0.5h-6.1c-0.1,0.7-0.4,1.3-0.9,1.8C11.6,24.4,10.7,24.7,9.9,24.7z M7.9,23.4c0.5,0.5,1.2,0.8,1.9,0.8
			c0.7,0,1.4-0.3,2-0.8c0.5-0.5,0.7-1.1,0.8-1.7l0-0.2h6.6c-0.3-0.8-0.6-1.3-0.9-1.8c-1.3-2.5-1.8-3.6-1.8-7.3
			c0-1.5-0.8-3.5-1.8-4.9c-0.7-0.9-1.7-2-3.2-2.1l-0.2,0v-4c0-0.2-0.1-0.4-0.2-0.5c-0.1-0.1-0.3-0.2-0.5-0.2H9.2
			C9,0.5,8.8,0.6,8.7,0.7l0,0C8.6,0.9,8.5,1,8.5,1.2v4l-0.2,0C6.8,5.4,5.7,6.5,5.1,7.4C4,8.8,3.3,10.8,3.3,12.3
			c0,3.8-0.5,4.8-1.8,7.3c-0.3,0.5-0.6,1.1-0.9,1.8l6.6,0l0,0.2C7.2,22.3,7.5,22.9,7.9,23.4L7.9,23.4z M9.9,24.1
			c-0.7,0-1.4-0.3-1.9-0.8c-0.4-0.4-0.7-1-0.8-1.6l0-0.3h5.5l0,0.3c-0.1,0.6-0.3,1.2-0.8,1.6C11.3,23.9,10.6,24.1,9.9,24.1z
			 M7.7,21.9c0.1,0.4,0.3,0.8,0.6,1c0.8,0.8,2.3,0.8,3.1,0c0.3-0.3,0.5-0.7,0.6-1H7.7z M19.2,21.4H0.6L0.7,21c0.3-0.5,0.5-1,0.7-1.4
			c1.3-2.6,1.9-3.6,1.9-7.4c0-1.4,0.8-3.5,1.8-4.9C5.8,6.5,7,5.3,8.5,5.3h2.7c1.5,0,2.7,1.1,3.4,2.1c1.1,1.4,1.8,3.5,1.8,4.9
			c0,3.8,0.5,4.7,1.9,7.4l0.1,0.3c0.2,0.3,0.4,0.7,0.6,1.1L19.2,21.4z M1.4,20.9h17c-0.1-0.3-0.3-0.5-0.4-0.7l-0.1-0.3
			c-1.3-2.6-1.9-3.7-1.9-7.6c0-1.4-0.7-3.2-1.7-4.6c-0.6-0.9-1.7-1.9-3-1.9H8.5c-1.3,0-2.4,1-3,1.9c-1,1.4-1.7,3.3-1.7,4.6
			c0,3.9-0.6,5-1.9,7.6C1.7,20.2,1.6,20.5,1.4,20.9z M11.2,5.3H8.5V1.2c0-0.2,0.1-0.3,0.2-0.5C8.9,0.6,9,0.6,9.2,0.6h1.3
			c0.2,0,0.3,0.1,0.5,0.2l0.1,0.1l0,0c0,0.1,0.1,0.2,0.1,0.3V5.3z M9,4.8h1.7V1.2c0,0,0-0.1,0-0.1l0,0c0,0-0.1,0-0.1,0H9.2
			c0,0-0.1,0-0.1,0c0,0,0,0.1,0,0.1V4.8z"/>
	</g>
</g>
</svg>
