<?xml version="1.0" encoding="utf-8"?>
<!-- Generator: Adobe Illustrator 19.2.1, SVG Export Plug-In . SVG Version: 6.00 Build 0)  -->
<svg version="1.1" xmlns="http://www.w3.org/2000/svg" xmlns:xlink="http://www.w3.org/1999/xlink" x="0px" y="0px"
	 viewBox="0 0 19.9 21.3" style="enable-background:new 0 0 19.9 21.3;" xml:space="preserve">
<style type="text/css">
	.st0{opacity:4.000000e-02;fill:url(#);}
	.st1{fill:#F1F2F2;}
	.st2{fill:#992626;}
	.st3{fill:#FF9933;}
	.st4{fill:#FFFFFF;}
	.st5{fill:#FF3399;}
	.st6{clip-path:url(#SVGID_4_);}
	.st7{fill:#414042;}
	.st8{fill:#F16A5F;}
	.st9{fill:#8A73B4;}
	.st10{fill:#1BB899;}
	.st11{fill:#475F77;}
	.st12{fill:#58595B;}
	.st13{fill:#231F20;}
	.st14{fill:#CC3333;}
	.st15{fill:none;stroke:#939598;stroke-width:0.25;stroke-miterlimit:10;}
	.st16{opacity:0.3;fill:#7A7A7A;}
	.st17{fill:#EF4836;}
	.st18{fill:#F9F4F7;}
	.st19{fill:#E8E8E8;}
	.st20{fill:#ABB7B7;}
	.st21{fill:#EFEFEF;}
	.st22{fill:#F2784B;}
	.st23{fill:#90C695;}
	.st24{fill:#2ECC71;}
	.st25{fill:#446CB3;}
	.st26{fill-rule:evenodd;clip-rule:evenodd;fill:#FF9933;}
	.st27{fill:none;stroke:#231F20;stroke-width:0.25;stroke-miterlimit:10;}
	.st28{fill:#A7A9AC;}
	.st29{fill:none;stroke:#FFFFFF;stroke-width:2;stroke-linecap:round;stroke-linejoin:round;stroke-miterlimit:10;}
	.st30{clip-path:url(#SVGID_6_);}
	.st31{clip-path:url(#SVGID_8_);}
	.st32{clip-path:url(#SVGID_10_);}
	.st33{opacity:0.4;}
	.st34{opacity:0.5;}
	.st35{fill:#E73790;}
	.st36{fill:#B71F39;}
	.st37{clip-path:url(#SVGID_12_);}
	.st38{fill:#D24D57;}
	.st39{fill:#F27935;}
	.st40{fill:#1E8BC3;}
	.st41{fill:#674172;}
	.st42{fill:#95A5A6;}
	.st43{fill:#67809F;}
	.st44{fill:#03C9A9;}
	.st45{fill:#D2527F;}
	.st46{fill:#F89406;}
	.st47{fill:#BF55EC;}
	.st48{fill:#6BB9F0;}
	.st49{fill:#4183D7;}
	.st50{fill:#F7CA18;}
	.st51{fill:#6C7A89;}
	.st52{fill:none;stroke:#D1D3D4;stroke-linecap:round;stroke-miterlimit:10;}
	.st53{fill:none;stroke:#FFFFFF;stroke-linecap:round;stroke-linejoin:round;stroke-miterlimit:10;}
	.st54{fill-rule:evenodd;clip-rule:evenodd;fill:#231F20;}
	.st55{fill-rule:evenodd;clip-rule:evenodd;fill:#CC3333;}
	.st56{fill-rule:evenodd;clip-rule:evenodd;fill:#FFFFFF;}
	.st57{clip-path:url(#SVGID_16_);}
	.st58{clip-path:url(#SVGID_18_);}
	.st59{clip-path:url(#SVGID_20_);}
	.st60{clip-path:url(#SVGID_22_);}
</style>
<g id="backgrounds">
</g>
<g id="art">
</g>
<g id="navigation">
</g>
<g id="assets">
	<g>
		<g>
			<path class="st54" d="M0.4,18.6h1.8v-7.9H0.4c-0.1,0-0.3-0.1-0.3-0.3V8.8c0-0.1,0-0.2,0.1-0.2l9.5-8.4c0.1-0.1,0.3-0.1,0.4,0l0,0
				l9.6,8.5c0.1,0.1,0.1,0.1,0.1,0.2h0v1.6c0,0.1-0.1,0.3-0.3,0.3h-1.7v7.9h1.8c0.2,0,0.3,0.1,0.3,0.3v2c0,0.2-0.1,0.3-0.3,0.3H0.4
				c-0.1,0-0.3-0.1-0.3-0.3v-2C0.1,18.8,0.3,18.6,0.4,18.6L0.4,18.6z M2.7,18.6h4.2v-7.7c0-0.2,0.1-0.3,0.3-0.3h5.7
				c0.1,0,0.3,0.1,0.3,0.3v7.7h4.2v-8.2c0-0.2,0.1-0.3,0.3-0.3h1.7V9L9.9,0.8L0.7,9v1.2h1.8c0.2,0,0.3,0.1,0.3,0.3V18.6L2.7,18.6z
				 M7.4,18.6h5.1v-7.5H7.4V18.6L7.4,18.6z M12.8,19.2L12.8,19.2H7.1h0H2.4H0.7v1.5h18.6v-1.5h-1.8H12.8z"/>
			<path class="st13" d="M19.5,21.3H0.4c-0.2,0-0.4-0.2-0.4-0.4v-2c0-0.2,0.2-0.4,0.4-0.4H2v-7.7H0.4c-0.2,0-0.4-0.2-0.4-0.4V8.8
				c0-0.1,0.1-0.2,0.2-0.3l9.5-8.4C9.8,0,10,0,10.1,0l0,0l0.1,0.1l9.6,8.5c0.1,0.1,0.1,0.2,0.1,0.3l0,1.6c0,0.2-0.2,0.4-0.4,0.4
				h-1.6v7.7h1.6c0.2,0,0.4,0.2,0.4,0.4v2C19.9,21.2,19.7,21.3,19.5,21.3z M0.4,18.8c-0.1,0-0.1,0.1-0.1,0.1v2
				c0,0.1,0.1,0.1,0.1,0.1h19.1c0.1,0,0.1-0.1,0.1-0.1v-2c0-0.1-0.1-0.1-0.1-0.1h-1.9v-8.2h1.9c0.1,0,0.1-0.1,0.1-0.1V8.9
				c0,0,0-0.1-0.1-0.1L10,0.3c-0.1,0-0.1,0-0.2,0L0.3,8.7c0,0-0.1,0.1-0.1,0.1v1.6c0,0.1,0.1,0.1,0.1,0.1h1.9v8.2H0.4z M19.4,20.8
				H0.5v-1.7h18.8V20.8z M0.8,20.5h18.3v-1.2H0.8V20.5z M17.4,18.8h-4.4v-7.9c0-0.1-0.1-0.1-0.1-0.1H7.1C7,10.7,7,10.8,7,10.9v7.9
				H2.6v-8.3c0-0.1-0.1-0.1-0.1-0.1H0.5V8.9l0,0l9.3-8.3L10,0.7l9.4,8.3v1.4h-1.9c-0.1,0-0.1,0.1-0.1,0.1V18.8z M13.2,18.5h3.9v-8.1
				c0-0.2,0.2-0.4,0.4-0.4h1.6V9L9.9,0.9L0.8,9v1h1.6c0.2,0,0.4,0.2,0.4,0.4v8.1h3.9v-7.6c0-0.2,0.2-0.4,0.4-0.4h5.7
				c0.2,0,0.4,0.2,0.4,0.4V18.5z M12.6,18.8H7.3V11h5.4V18.8z M7.5,18.5h4.9v-7.2H7.5V18.5z"/>
		</g>
	</g>
</g>
</svg>
