<svg xmlns="http://www.w3.org/2000/svg" viewBox="0 0 19.92 21.34"><defs><style>.cls-1,.cls-2{fill:#c33;}.cls-1{fill-rule:evenodd;}</style></defs><title>Asset 1</title><g id="Layer_2" data-name="Layer 2"><g id="navigation"><path class="cls-1" d="M.4,18.63H2.15V10.72H.4a.27.27,0,0,1-.27-.27V8.84a.27.27,0,0,1,.11-.22L9.73.19a.27.27,0,0,1,.36,0h0L19.7,8.65a.27.27,0,0,1,.09.2h0v1.6a.27.27,0,0,1-.27.27H17.77v7.91h1.75a.27.27,0,0,1,.27.27v2a.27.27,0,0,1-.27.27H.4a.27.27,0,0,1-.27-.27v-2a.27.27,0,0,1,.27-.27Zm2.3,0H6.86V10.89a.27.27,0,0,1,.27-.27h5.65a.27.27,0,0,1,.27.27v7.74h4.18V10.45a.27.27,0,0,1,.27-.27h1.75V9L9.91.76.67,9v1.22H2.43a.27.27,0,0,1,.27.27v8.18Zm4.7,0h5.11V11.16H7.4v7.47Zm5.4.54H.67v1.49H19.26V19.18H12.8Z"/><path class="cls-2" d="M19.53,21.34H.4a.4.4,0,0,1-.4-.4v-2a.4.4,0,0,1,.4-.4H2V10.85H.4a.4.4,0,0,1-.4-.4V8.84a.4.4,0,0,1,.16-.32L9.65.1A.4.4,0,0,1,10.1,0h0l.06.06,9.61,8.46a.4.4,0,0,1,.13.3v1.6a.4.4,0,0,1-.4.4H17.9v7.66h1.63a.4.4,0,0,1,.4.4v2A.4.4,0,0,1,19.53,21.34ZM.4,18.76a.15.15,0,0,0-.15.15v2a.15.15,0,0,0,.15.15H19.53a.15.15,0,0,0,.15-.15v-2a.15.15,0,0,0-.15-.15H17.65V10.6h1.87a.15.15,0,0,0,.15-.15V8.85a.15.15,0,0,0-.05-.11L10,.29a.15.15,0,0,0-.19,0L.32,8.71a.16.16,0,0,0-.07.13v1.61a.15.15,0,0,0,.15.15H2.28v8.16Zm19,2H.55V19.05H19.38ZM.8,20.54H19.13V19.3H.8Zm16.56-1.79H12.93V10.89a.15.15,0,0,0-.15-.15H7.13a.15.15,0,0,0-.15.15v7.87H2.57V10.45a.15.15,0,0,0-.15-.15H.54V8.9l0,0L9.91.59,10,.66l9.38,8.26V10.3H17.5a.15.15,0,0,0-.15.15Zm-4.18-.25h3.93V10.45a.4.4,0,0,1,.4-.4h1.62V9L9.91.92.79,9v1H2.43a.4.4,0,0,1,.4.4v8.06H6.73V10.89a.4.4,0,0,1,.4-.4h5.65a.4.4,0,0,1,.4.4Zm-.54.25H7.28V11h5.36Zm-5.11-.25h4.86V11.29H7.53Z"/></g></g></svg>