<?xml version="1.0" encoding="utf-8"?>
<!-- Generator: Adobe Illustrator 19.2.1, SVG Export Plug-In . SVG Version: 6.00 Build 0)  -->
<svg version="1.1" xmlns="http://www.w3.org/2000/svg" xmlns:xlink="http://www.w3.org/1999/xlink" x="0px" y="0px"
	 viewBox="0 0 17.3 24.1" style="enable-background:new 0 0 17.3 24.1;" xml:space="preserve">
<style type="text/css">
	.st0{opacity:4.000000e-02;fill:url(#);}
	.st1{fill:#F1F2F2;}
	.st2{fill:#992626;}
	.st3{fill:#FF9933;}
	.st4{fill:#FFFFFF;}
	.st5{fill:#FF3399;}
	.st6{clip-path:url(#SVGID_4_);}
	.st7{fill:#414042;}
	.st8{fill:#F16A5F;}
	.st9{fill:#8A73B4;}
	.st10{fill:#1BB899;}
	.st11{fill:#475F77;}
	.st12{fill:#58595B;}
	.st13{fill:#231F20;}
	.st14{fill:#CC3333;}
	.st15{fill:none;stroke:#939598;stroke-width:0.25;stroke-miterlimit:10;}
	.st16{opacity:0.3;fill:#7A7A7A;}
	.st17{fill:#EF4836;}
	.st18{fill:#F9F4F7;}
	.st19{fill:#E8E8E8;}
	.st20{fill:#ABB7B7;}
	.st21{fill:#EFEFEF;}
	.st22{fill:#F2784B;}
	.st23{fill:#90C695;}
	.st24{fill:#2ECC71;}
	.st25{fill:#446CB3;}
	.st26{fill-rule:evenodd;clip-rule:evenodd;fill:#FF9933;}
	.st27{fill:none;stroke:#231F20;stroke-width:0.25;stroke-miterlimit:10;}
	.st28{fill:#A7A9AC;}
	.st29{fill:none;stroke:#FFFFFF;stroke-width:2;stroke-linecap:round;stroke-linejoin:round;stroke-miterlimit:10;}
	.st30{clip-path:url(#SVGID_6_);}
	.st31{clip-path:url(#SVGID_8_);}
	.st32{clip-path:url(#SVGID_10_);}
	.st33{opacity:0.4;}
	.st34{opacity:0.5;}
	.st35{fill:#E73790;}
	.st36{fill:#B71F39;}
	.st37{clip-path:url(#SVGID_12_);}
	.st38{fill:#D24D57;}
	.st39{fill:#F27935;}
	.st40{fill:#1E8BC3;}
	.st41{fill:#674172;}
	.st42{fill:#95A5A6;}
	.st43{fill:#67809F;}
	.st44{fill:#03C9A9;}
	.st45{fill:#D2527F;}
	.st46{fill:#F89406;}
	.st47{fill:#BF55EC;}
	.st48{fill:#6BB9F0;}
	.st49{fill:#4183D7;}
	.st50{fill:#F7CA18;}
	.st51{fill:#6C7A89;}
	.st52{fill:none;stroke:#D1D3D4;stroke-linecap:round;stroke-miterlimit:10;}
	.st53{fill:none;stroke:#FFFFFF;stroke-linecap:round;stroke-linejoin:round;stroke-miterlimit:10;}
	.st54{fill-rule:evenodd;clip-rule:evenodd;fill:#231F20;}
	.st55{fill-rule:evenodd;clip-rule:evenodd;fill:#CC3333;}
	.st56{fill-rule:evenodd;clip-rule:evenodd;fill:#FFFFFF;}
	.st57{clip-path:url(#SVGID_16_);}
	.st58{clip-path:url(#SVGID_18_);}
	.st59{clip-path:url(#SVGID_20_);}
	.st60{clip-path:url(#SVGID_22_);}
</style>
<g id="backgrounds">
</g>
<g id="art">
	<g>
		<polygon id="shadow_30_" class="st16" points="12.2,0.4 0.4,0.4 0.4,24.1 17.3,24.1 17.3,19.9 17.3,5.5 		"/>
		<rect y="19.5" class="st23" width="16.9" height="4.2"/>
		<g id="text_31_">
			<path class="st18" d="M1.2,22.6c-0.1,0-0.2-0.1-0.2-0.2c0-0.1,0.1-0.2,0.2-0.2c0.1,0,0.2,0.1,0.2,0.2C1.4,22.6,1.3,22.6,1.2,22.6
				L1.2,22.6z"/>
			<path class="st18" d="M1.5,22.5l0.8-1.1v0H1.6v-0.2h1.1v0.2l-0.8,1.1v0h0.8v0.2H1.5V22.5z"/>
			<path class="st18" d="M3.2,21.1v1.5H2.9v-1.5H3.2z"/>
			<path class="st18" d="M3.5,21.1c0.1,0,0.2,0,0.4,0c0.2,0,0.3,0,0.4,0.1c0.1,0.1,0.1,0.2,0.1,0.3c0,0.1,0,0.3-0.1,0.3
				c-0.1,0.1-0.3,0.2-0.5,0.2c-0.1,0-0.1,0-0.1,0v0.6H3.5V21.1z M3.8,21.8c0,0,0.1,0,0.1,0c0.2,0,0.3-0.1,0.3-0.3
				c0-0.2-0.1-0.3-0.3-0.3c-0.1,0-0.1,0-0.2,0V21.8z"/>
		</g>
		<polygon class="st19" points="0,0 0,19.5 16.9,19.5 16.9,5.1 11.8,0 		"/>
		<g>
			<g>
				<rect x="6.9" y="5.4" class="st20" width="1.5" height="0.9"/>
				<rect x="8.4" y="6.3" class="st20" width="1.5" height="0.9"/>
				<rect x="6.9" y="7.3" class="st20" width="1.5" height="0.9"/>
				<rect x="8.4" y="8.2" class="st20" width="1.5" height="0.9"/>
				<rect x="6.9" y="9.1" class="st20" width="1.5" height="0.9"/>
				<rect x="8.4" y="10" class="st20" width="1.5" height="0.9"/>
				<rect x="6.9" y="10.9" class="st20" width="1.5" height="0.9"/>
				<rect x="8.4" y="11.9" class="st20" width="1.5" height="0.9"/>
			</g>
			<path class="st20" d="M7.8,13.2v2.9h1.3v-2.9H7.8z M8.9,15.8H8.1V15h0.8V15.8z"/>
		</g>
		<polygon class="st19" points="16.9,10.3 16.9,5.2 11.9,5.2 		"/>
		<polygon class="st21" points="11.8,0 11.9,5.2 16.9,5.1 		"/>
	</g>
</g>
<g id="navigation">
</g>
<g id="assets">
</g>
</svg>
