<?xml version="1.0" encoding="utf-8"?>
<!-- Generator: Adobe Illustrator 19.2.1, SVG Export Plug-In . SVG Version: 6.00 Build 0)  -->
<svg version="1.1" xmlns="http://www.w3.org/2000/svg" xmlns:xlink="http://www.w3.org/1999/xlink" x="0px" y="0px"
	 viewBox="0 0 17.3 24.1" style="enable-background:new 0 0 17.3 24.1;" xml:space="preserve">
<style type="text/css">
	.st0{opacity:4.000000e-02;fill:url(#);}
	.st1{fill:#F1F2F2;}
	.st2{fill:#992626;}
	.st3{fill:#FF9933;}
	.st4{fill:#FFFFFF;}
	.st5{fill:#FF3399;}
	.st6{clip-path:url(#SVGID_4_);}
	.st7{fill:#414042;}
	.st8{fill:#F16A5F;}
	.st9{fill:#8A73B4;}
	.st10{fill:#1BB899;}
	.st11{fill:#475F77;}
	.st12{fill:#58595B;}
	.st13{fill:#231F20;}
	.st14{fill:#CC3333;}
	.st15{fill:none;stroke:#939598;stroke-width:0.25;stroke-miterlimit:10;}
	.st16{opacity:0.3;fill:#7A7A7A;}
	.st17{fill:#EF4836;}
	.st18{fill:#F9F4F7;}
	.st19{fill:#E8E8E8;}
	.st20{fill:#ABB7B7;}
	.st21{fill:#EFEFEF;}
	.st22{fill:#F2784B;}
	.st23{fill:#90C695;}
	.st24{fill:#2ECC71;}
	.st25{fill:#446CB3;}
	.st26{fill-rule:evenodd;clip-rule:evenodd;fill:#FF9933;}
	.st27{fill:none;stroke:#231F20;stroke-width:0.25;stroke-miterlimit:10;}
	.st28{fill:#A7A9AC;}
	.st29{fill:none;stroke:#FFFFFF;stroke-width:2;stroke-linecap:round;stroke-linejoin:round;stroke-miterlimit:10;}
	.st30{clip-path:url(#SVGID_6_);}
	.st31{clip-path:url(#SVGID_8_);}
	.st32{clip-path:url(#SVGID_10_);}
	.st33{opacity:0.4;}
	.st34{opacity:0.5;}
	.st35{fill:#E73790;}
	.st36{fill:#B71F39;}
	.st37{clip-path:url(#SVGID_12_);}
	.st38{fill:#D24D57;}
	.st39{fill:#F27935;}
	.st40{fill:#1E8BC3;}
	.st41{fill:#674172;}
	.st42{fill:#95A5A6;}
	.st43{fill:#67809F;}
	.st44{fill:#03C9A9;}
	.st45{fill:#D2527F;}
	.st46{fill:#F89406;}
	.st47{fill:#BF55EC;}
	.st48{fill:#6BB9F0;}
	.st49{fill:#4183D7;}
	.st50{fill:#F7CA18;}
	.st51{fill:#6C7A89;}
	.st52{fill:none;stroke:#D1D3D4;stroke-linecap:round;stroke-miterlimit:10;}
	.st53{fill:none;stroke:#FFFFFF;stroke-linecap:round;stroke-linejoin:round;stroke-miterlimit:10;}
	.st54{fill-rule:evenodd;clip-rule:evenodd;fill:#231F20;}
	.st55{fill-rule:evenodd;clip-rule:evenodd;fill:#CC3333;}
	.st56{fill-rule:evenodd;clip-rule:evenodd;fill:#FFFFFF;}
	.st57{clip-path:url(#SVGID_16_);}
	.st58{clip-path:url(#SVGID_18_);}
	.st59{clip-path:url(#SVGID_20_);}
	.st60{clip-path:url(#SVGID_22_);}
</style>
<g id="backgrounds">
</g>
<g id="art">
	<g>
		<polygon id="shadow_12_" class="st16" points="12.2,0.4 0.4,0.4 0.4,24.1 17.3,24.1 17.3,19.9 17.3,5.5 		"/>
		<rect y="19.5" class="st42" width="16.9" height="4.2"/>
		<g id="text_12_">
			<path class="st18" d="M1.2,22.6c-0.1,0-0.2-0.1-0.2-0.2c0-0.1,0.1-0.2,0.2-0.2c0.1,0,0.2,0.1,0.2,0.2C1.4,22.6,1.3,22.6,1.2,22.6
				L1.2,22.6z"/>
			<path class="st18" d="M1.6,21.1c0.1,0,0.3,0,0.4,0c0.3,0,0.5,0.1,0.6,0.2c0.1,0.1,0.2,0.3,0.2,0.6c0,0.3-0.1,0.5-0.2,0.6
				c-0.1,0.1-0.4,0.2-0.7,0.2c-0.2,0-0.3,0-0.4,0V21.1z M1.9,22.4c0,0,0.1,0,0.2,0c0.4,0,0.6-0.2,0.6-0.6c0-0.3-0.2-0.5-0.5-0.5
				c-0.1,0-0.1,0-0.2,0V22.4z"/>
			<path class="st18" d="M3.2,21.1h0.3v1.3h0.6v0.2H3.2V21.1z"/>
			<path class="st18" d="M4.3,21.1h0.3v1.3h0.6v0.2H4.3V21.1z"/>
		</g>
		<polygon class="st19" points="0,0 0,19.5 16.9,19.5 16.9,5.1 11.8,0 		"/>
		<path class="st20" d="M9.9,13.3v-0.7l-0.8-0.2c-0.1-0.4-0.2-0.7-0.4-1l0.5-0.7l-0.5-0.5l-0.7,0.5c-0.3-0.2-0.6-0.3-1-0.4L6.8,9.5
			H6.1l-0.2,0.8c-0.4,0.1-0.7,0.2-1,0.4l-0.7-0.5l-0.5,0.5l0.5,0.7c-0.2,0.3-0.3,0.6-0.4,1L3,12.6v0.7l0.8,0.2
			c0.1,0.4,0.2,0.7,0.4,1l-0.4,0.7l0.5,0.5l0.7-0.4c0.3,0.2,0.6,0.3,1,0.4l0.2,0.8h0.7l0.2-0.8c0.4-0.1,0.7-0.2,1-0.4l0.7,0.5
			l0.5-0.5l-0.5-0.7c0.2-0.3,0.3-0.6,0.4-1L9.9,13.3z M6.4,14.6c-0.9,0-1.7-0.7-1.7-1.7c0-0.9,0.7-1.7,1.7-1.7
			c0.9,0,1.7,0.7,1.7,1.7C8.1,13.8,7.3,14.6,6.4,14.6z"/>
		<path class="st20" d="M13.7,8l-0.2-0.5l-0.7,0.1c-0.2-0.3-0.4-0.5-0.6-0.7l0.2-0.7L11.8,6l-0.4,0.6c-0.3-0.1-0.6-0.1-0.9,0
			l-0.4-0.6L9.6,6.1l0.1,0.7C9.4,7,9.2,7.2,9.1,7.4L8.4,7.2L8.1,7.8l0.6,0.4c-0.1,0.3-0.1,0.6,0,0.9L8.1,9.4L8.3,10L9,9.9
			c0.2,0.3,0.4,0.5,0.6,0.7l-0.2,0.7l0.5,0.2l0.4-0.5c0.3,0.1,0.6,0.1,0.9,0l0.4,0.6l0.5-0.2L12,10.6c0.3-0.2,0.5-0.4,0.7-0.6
			l0.7,0.2l0.2-0.5L13,9.2c0.1-0.3,0.1-0.6,0-0.9L13.7,8z M11.3,10c-0.7,0.3-1.5-0.1-1.8-0.8c-0.3-0.7,0.1-1.5,0.8-1.8
			c0.7-0.3,1.5,0.1,1.8,0.8C12.4,8.9,12.1,9.7,11.3,10z"/>
		<polygon class="st19" points="16.9,10.3 16.9,5.2 11.9,5.2 		"/>
		<polygon class="st21" points="11.8,0 11.9,5.2 16.9,5.1 		"/>
	</g>
</g>
<g id="navigation">
</g>
<g id="assets">
</g>
</svg>
