<?xml version="1.0" encoding="utf-8"?>
<!-- Generator: Adobe Illustrator 19.2.1, SVG Export Plug-In . SVG Version: 6.00 Build 0)  -->
<svg version="1.1" xmlns="http://www.w3.org/2000/svg" xmlns:xlink="http://www.w3.org/1999/xlink" x="0px" y="0px"
	 viewBox="0 0 17.3 24.1" style="enable-background:new 0 0 17.3 24.1;" xml:space="preserve">
<style type="text/css">
	.st0{opacity:4.000000e-02;fill:url(#);}
	.st1{fill:#F1F2F2;}
	.st2{fill:#992626;}
	.st3{fill:#FF9933;}
	.st4{fill:#FFFFFF;}
	.st5{fill:#FF3399;}
	.st6{clip-path:url(#SVGID_4_);}
	.st7{fill:#414042;}
	.st8{fill:#F16A5F;}
	.st9{fill:#8A73B4;}
	.st10{fill:#1BB899;}
	.st11{fill:#475F77;}
	.st12{fill:#58595B;}
	.st13{fill:#231F20;}
	.st14{fill:#CC3333;}
	.st15{fill:none;stroke:#939598;stroke-width:0.25;stroke-miterlimit:10;}
	.st16{opacity:0.3;fill:#7A7A7A;}
	.st17{fill:#EF4836;}
	.st18{fill:#F9F4F7;}
	.st19{fill:#E8E8E8;}
	.st20{fill:#ABB7B7;}
	.st21{fill:#EFEFEF;}
	.st22{fill:#F2784B;}
	.st23{fill:#90C695;}
	.st24{fill:#2ECC71;}
	.st25{fill:#446CB3;}
	.st26{fill-rule:evenodd;clip-rule:evenodd;fill:#FF9933;}
	.st27{fill:none;stroke:#231F20;stroke-width:0.25;stroke-miterlimit:10;}
	.st28{fill:#A7A9AC;}
	.st29{fill:none;stroke:#FFFFFF;stroke-width:2;stroke-linecap:round;stroke-linejoin:round;stroke-miterlimit:10;}
	.st30{clip-path:url(#SVGID_6_);}
	.st31{clip-path:url(#SVGID_8_);}
	.st32{clip-path:url(#SVGID_10_);}
	.st33{opacity:0.4;}
	.st34{opacity:0.5;}
	.st35{fill:#E73790;}
	.st36{fill:#B71F39;}
	.st37{clip-path:url(#SVGID_12_);}
	.st38{fill:#D24D57;}
	.st39{fill:#F27935;}
	.st40{fill:#1E8BC3;}
	.st41{fill:#674172;}
	.st42{fill:#95A5A6;}
	.st43{fill:#67809F;}
	.st44{fill:#03C9A9;}
	.st45{fill:#D2527F;}
	.st46{fill:#F89406;}
	.st47{fill:#BF55EC;}
	.st48{fill:#6BB9F0;}
	.st49{fill:#4183D7;}
	.st50{fill:#F7CA18;}
	.st51{fill:#6C7A89;}
	.st52{fill:none;stroke:#D1D3D4;stroke-linecap:round;stroke-miterlimit:10;}
	.st53{fill:none;stroke:#FFFFFF;stroke-linecap:round;stroke-linejoin:round;stroke-miterlimit:10;}
	.st54{fill-rule:evenodd;clip-rule:evenodd;fill:#231F20;}
	.st55{fill-rule:evenodd;clip-rule:evenodd;fill:#CC3333;}
	.st56{fill-rule:evenodd;clip-rule:evenodd;fill:#FFFFFF;}
	.st57{clip-path:url(#SVGID_16_);}
	.st58{clip-path:url(#SVGID_18_);}
	.st59{clip-path:url(#SVGID_20_);}
	.st60{clip-path:url(#SVGID_22_);}
</style>
<g id="backgrounds">
</g>
<g id="art">
	<g>
		<polygon id="shadow_8_" class="st16" points="12.2,0.4 0.4,0.4 0.4,24.1 17.3,24.1 17.3,19.9 17.3,5.5 		"/>
		<rect y="19.5" class="st46" width="16.9" height="4.2"/>
		<g id="text_8_">
			<path class="st18" d="M1.2,22.6c-0.1,0-0.2-0.1-0.2-0.2c0-0.1,0.1-0.2,0.2-0.2c0.1,0,0.2,0.1,0.2,0.2C1.4,22.6,1.3,22.6,1.2,22.6
				L1.2,22.6z"/>
			<path class="st18" d="M1.9,21.1v0.6h0.6v-0.6h0.3v1.5H2.5v-0.7H1.9v0.7H1.6v-1.5H1.9z"/>
			<path class="st18" d="M3.4,21.3H3v-0.2h1.1v0.2H3.7v1.3H3.4V21.3z"/>
			<path class="st18" d="M5.6,22c0-0.2,0-0.4,0-0.6h0c0,0.2-0.1,0.4-0.2,0.6l-0.2,0.7H4.9L4.7,22c-0.1-0.2-0.1-0.4-0.2-0.6h0
				c0,0.2,0,0.4,0,0.6l0,0.6H4.3l0.1-1.5h0.4l0.2,0.6C5,21.9,5,22.1,5.1,22.2h0c0-0.2,0.1-0.3,0.1-0.5l0.2-0.6h0.4l0.1,1.5H5.6
				L5.6,22z"/>
			<path class="st18" d="M6.1,21.1h0.3v1.3H7v0.2H6.1V21.1z"/>
		</g>
		<polygon class="st19" points="0,0 0,19.5 16.9,19.5 16.9,5.1 11.8,0 		"/>
		<g id="earth_2_">
			<path class="st20" d="M8.2,6.1c-2.8,0-5.1,2.3-5.1,5.1c0,2.8,2.3,5.1,5.1,5.1c2.8,0,5.1-2.3,5.1-5.1C13.3,8.4,11,6.1,8.2,6.1z
				 M3.8,11.5h1.6c0,0.6,0.1,1.1,0.2,1.6H4.2C4,12.6,3.8,12.1,3.8,11.5z M8.6,8.6V6.8C8.9,7,9.5,7.6,10,8.6L8.6,8.6L8.6,8.6z
				 M10.2,9.3c0.1,0.5,0.2,1,0.3,1.6H8.6V9.3H10.2z M7.8,6.9c0.1,0,0.1-0.1,0.1-0.1v1.8H6.5c0.2-0.4,0.4-0.7,0.6-1
				C7.3,7.3,7.6,7,7.8,6.9z M7.9,9.3v1.6H6c0-0.6,0.1-1.1,0.3-1.6H7.9z M5.4,10.8H3.8c0-0.6,0.2-1.1,0.4-1.6h1.4
				C5.5,9.7,5.4,10.3,5.4,10.8z M6,11.5h1.9v1.6H6.3C6.1,12.6,6,12.1,6,11.5z M7.9,13.7v1.8c-0.3-0.2-1-0.8-1.4-1.8H7.9z M8.7,15.4
				c-0.1,0-0.1,0.1-0.1,0.1v-1.8H10c-0.2,0.4-0.4,0.7-0.6,1C9.1,15,8.9,15.3,8.7,15.4z M8.6,13.1v-1.6h1.9c0,0.6-0.1,1.1-0.3,1.6
				H8.6z M11.1,11.5h1.6c0,0.6-0.2,1.1-0.4,1.6h-1.4C11,12.6,11.1,12.1,11.1,11.5z M11.1,10.8c0-0.6-0.1-1.1-0.2-1.6h1.4
				c0.2,0.5,0.4,1,0.4,1.6H11.1z M11.9,8.6h-1.2c-0.3-0.7-0.6-1.3-1-1.7C10.6,7.3,11.3,7.8,11.9,8.6z M6.8,6.9
				c-0.3,0.4-0.7,0.9-1,1.7H4.6C5.1,7.8,5.9,7.3,6.8,6.9z M4.6,13.7h1.2c0.3,0.7,0.6,1.3,1,1.7C5.9,15.1,5.1,14.5,4.6,13.7z
				 M9.7,15.4c0.3-0.4,0.7-0.9,1-1.7h1.2C11.3,14.5,10.6,15.1,9.7,15.4z"/>
		</g>
		<polygon class="st19" points="16.9,10.3 16.9,5.2 11.9,5.2 		"/>
		<polygon class="st21" points="11.8,0 11.9,5.2 16.9,5.1 		"/>
	</g>
</g>
<g id="navigation">
</g>
<g id="assets">
</g>
</svg>
