<?xml version="1.0" encoding="utf-8"?>
<!-- Generator: Adobe Illustrator 19.2.1, SVG Export Plug-In . SVG Version: 6.00 Build 0)  -->
<svg version="1.1" xmlns="http://www.w3.org/2000/svg" xmlns:xlink="http://www.w3.org/1999/xlink" x="0px" y="0px"
	 viewBox="0 0 17.3 24.1" style="enable-background:new 0 0 17.3 24.1;" xml:space="preserve">
<style type="text/css">
	.st0{opacity:4.000000e-02;fill:url(#);}
	.st1{fill:#F1F2F2;}
	.st2{fill:#992626;}
	.st3{fill:#FF9933;}
	.st4{fill:#FFFFFF;}
	.st5{fill:#FF3399;}
	.st6{clip-path:url(#SVGID_4_);}
	.st7{fill:#414042;}
	.st8{fill:#F16A5F;}
	.st9{fill:#8A73B4;}
	.st10{fill:#1BB899;}
	.st11{fill:#475F77;}
	.st12{fill:#58595B;}
	.st13{fill:#231F20;}
	.st14{fill:#CC3333;}
	.st15{fill:none;stroke:#939598;stroke-width:0.25;stroke-miterlimit:10;}
	.st16{opacity:0.3;fill:#7A7A7A;}
	.st17{fill:#EF4836;}
	.st18{fill:#F9F4F7;}
	.st19{fill:#E8E8E8;}
	.st20{fill:#ABB7B7;}
	.st21{fill:#EFEFEF;}
	.st22{fill:#F2784B;}
	.st23{fill:#90C695;}
	.st24{fill:#2ECC71;}
	.st25{fill:#446CB3;}
	.st26{fill-rule:evenodd;clip-rule:evenodd;fill:#FF9933;}
	.st27{fill:none;stroke:#231F20;stroke-width:0.25;stroke-miterlimit:10;}
	.st28{fill:#A7A9AC;}
	.st29{fill:none;stroke:#FFFFFF;stroke-width:2;stroke-linecap:round;stroke-linejoin:round;stroke-miterlimit:10;}
	.st30{clip-path:url(#SVGID_6_);}
	.st31{clip-path:url(#SVGID_8_);}
	.st32{clip-path:url(#SVGID_10_);}
	.st33{opacity:0.4;}
	.st34{opacity:0.5;}
	.st35{fill:#E73790;}
	.st36{fill:#B71F39;}
	.st37{clip-path:url(#SVGID_12_);}
	.st38{fill:#D24D57;}
	.st39{fill:#F27935;}
	.st40{fill:#1E8BC3;}
	.st41{fill:#674172;}
	.st42{fill:#95A5A6;}
	.st43{fill:#67809F;}
	.st44{fill:#03C9A9;}
	.st45{fill:#D2527F;}
	.st46{fill:#F89406;}
	.st47{fill:#BF55EC;}
	.st48{fill:#6BB9F0;}
	.st49{fill:#4183D7;}
	.st50{fill:#F7CA18;}
	.st51{fill:#6C7A89;}
	.st52{fill:none;stroke:#D1D3D4;stroke-linecap:round;stroke-miterlimit:10;}
	.st53{fill:none;stroke:#FFFFFF;stroke-linecap:round;stroke-linejoin:round;stroke-miterlimit:10;}
	.st54{fill-rule:evenodd;clip-rule:evenodd;fill:#231F20;}
	.st55{fill-rule:evenodd;clip-rule:evenodd;fill:#CC3333;}
	.st56{fill-rule:evenodd;clip-rule:evenodd;fill:#FFFFFF;}
	.st57{clip-path:url(#SVGID_16_);}
	.st58{clip-path:url(#SVGID_18_);}
	.st59{clip-path:url(#SVGID_20_);}
	.st60{clip-path:url(#SVGID_22_);}
</style>
<g id="backgrounds">
</g>
<g id="art">
	<g>
		<polygon id="shadow_11_" class="st16" points="12.2,0.4 0.4,0.4 0.4,24.1 17.3,24.1 17.3,19.9 17.3,5.5 		"/>
		<rect y="19.5" class="st43" width="16.9" height="4.2"/>
		<g id="text_11_">
			<path class="st18" d="M1.2,22.6c-0.1,0-0.2-0.1-0.2-0.2c0-0.1,0.1-0.2,0.2-0.2c0.1,0,0.2,0.1,0.2,0.2C1.4,22.6,1.3,22.6,1.2,22.6
				L1.2,22.6z"/>
			<path class="st18" d="M2.1,21.1h0.3v1c0,0.4-0.2,0.6-0.5,0.6c-0.1,0-0.2,0-0.2,0l0-0.2c0,0,0.1,0,0.2,0c0.2,0,0.3-0.1,0.3-0.3
				V21.1z"/>
			<path class="st18" d="M2.7,22.3c0.1,0.1,0.2,0.1,0.4,0.1c0.2,0,0.3-0.1,0.3-0.2C3.3,22.1,3.2,22,3,22c-0.2-0.1-0.4-0.2-0.4-0.4
				c0-0.2,0.2-0.4,0.5-0.4c0.2,0,0.3,0,0.4,0.1l-0.1,0.2c-0.1,0-0.2-0.1-0.3-0.1c-0.2,0-0.2,0.1-0.2,0.2c0,0.1,0.1,0.2,0.3,0.2
				c0.3,0.1,0.4,0.2,0.4,0.4c0,0.2-0.2,0.5-0.6,0.5c-0.2,0-0.3,0-0.4-0.1L2.7,22.3z"/>
		</g>
		<polygon class="st19" points="0,0 0,19.5 16.9,19.5 16.9,5.1 11.8,0 		"/>
		<g>
			<g>
				<path class="st20" d="M4,10.9c0.8,0,0.9-0.4,0.9-0.8c0-0.3,0-0.6-0.1-0.9c0-0.3-0.1-0.6-0.1-0.9c0-1,0.7-1.5,1.6-1.5h0.2v0.6
					H6.4c-0.7,0-0.9,0.4-0.9,1c0,0.3,0,0.5,0.1,0.8c0,0.3,0.1,0.6,0.1,0.9c0,0.7-0.3,1.1-0.8,1.2v0c0.5,0.1,0.8,0.5,0.8,1.2
					c0,0.3,0,0.6-0.1,0.9c0,0.3-0.1,0.5-0.1,0.8c0,0.6,0.3,1,0.9,1h0.2v0.6H6.4c-0.9,0-1.6-0.4-1.6-1.5c0-0.3,0-0.6,0.1-0.9
					c0-0.3,0.1-0.6,0.1-0.9c0-0.3-0.1-0.8-0.9-0.8V10.9z"/>
			</g>
			<g>
				<path class="st20" d="M13,11.5c-0.8,0-0.9,0.5-0.9,0.8c0,0.3,0,0.6,0.1,0.9c0,0.3,0.1,0.6,0.1,0.9c0,1.1-0.7,1.5-1.6,1.5h-0.2
					v-0.6h0.2c0.6,0,0.9-0.3,0.9-1c0-0.3,0-0.5-0.1-0.8c0-0.3-0.1-0.6-0.1-0.9c0-0.7,0.3-1.1,0.8-1.2v0c-0.5-0.1-0.8-0.5-0.8-1.2
					c0-0.3,0-0.6,0.1-0.9c0-0.3,0.1-0.5,0.1-0.8c0-0.6-0.2-1-0.9-1h-0.2V6.7h0.2c1,0,1.6,0.4,1.6,1.5c0,0.3,0,0.6-0.1,0.9
					c0,0.3-0.1,0.6-0.1,0.9c0,0.4,0.1,0.8,0.9,0.8V11.5z"/>
			</g>
			<g>
				<path class="st20" d="M7.7,14.4c0.2-0.5,0.5-1.5,0.6-2.2l0.9-0.1c-0.2,0.8-0.6,1.8-0.9,2.2L7.7,14.4z M8.7,10.1
					c-0.3,0-0.5-0.2-0.5-0.6C8.1,9.2,8.4,9,8.7,9C9,9,9.2,9.2,9.2,9.6C9.2,9.9,9,10.1,8.7,10.1L8.7,10.1z"/>
			</g>
		</g>
		<polygon class="st19" points="16.9,10.3 16.9,5.2 11.9,5.2 		"/>
		<polygon class="st21" points="11.8,0 11.9,5.2 16.9,5.1 		"/>
	</g>
</g>
<g id="navigation">
</g>
<g id="assets">
</g>
</svg>
