<?xml version="1.0" encoding="utf-8"?>
<!-- Generator: Adobe Illustrator 19.2.1, SVG Export Plug-In . SVG Version: 6.00 Build 0)  -->
<svg version="1.1" xmlns="http://www.w3.org/2000/svg" xmlns:xlink="http://www.w3.org/1999/xlink" x="0px" y="0px"
	 viewBox="0 0 16.9 24.1" style="enable-background:new 0 0 16.9 24.1;" xml:space="preserve">
<style type="text/css">
	.st0{opacity:4.000000e-02;fill:url(#);}
	.st1{fill:#F1F2F2;}
	.st2{fill:#992626;}
	.st3{fill:#FF9933;}
	.st4{fill:#FFFFFF;}
	.st5{fill:#FF3399;}
	.st6{clip-path:url(#SVGID_4_);}
	.st7{fill:#414042;}
	.st8{fill:#F16A5F;}
	.st9{fill:#8A73B4;}
	.st10{fill:#1BB899;}
	.st11{fill:#475F77;}
	.st12{fill:#58595B;}
	.st13{fill:#231F20;}
	.st14{fill:#CC3333;}
	.st15{fill:none;stroke:#939598;stroke-width:0.25;stroke-miterlimit:10;}
	.st16{opacity:0.3;fill:#7A7A7A;}
	.st17{fill:#EF4836;}
	.st18{fill:#F9F4F7;}
	.st19{fill:#E8E8E8;}
	.st20{fill:#ABB7B7;}
	.st21{fill:#EFEFEF;}
	.st22{fill:#F2784B;}
	.st23{fill:#90C695;}
	.st24{fill:#2ECC71;}
	.st25{fill:#446CB3;}
	.st26{fill-rule:evenodd;clip-rule:evenodd;fill:#FF9933;}
	.st27{fill:none;stroke:#231F20;stroke-width:0.25;stroke-miterlimit:10;}
	.st28{fill:#A7A9AC;}
	.st29{fill:none;stroke:#FFFFFF;stroke-width:2;stroke-linecap:round;stroke-linejoin:round;stroke-miterlimit:10;}
	.st30{clip-path:url(#SVGID_6_);}
	.st31{clip-path:url(#SVGID_8_);}
	.st32{clip-path:url(#SVGID_10_);}
	.st33{opacity:0.4;}
	.st34{opacity:0.5;}
	.st35{fill:#E73790;}
	.st36{fill:#B71F39;}
	.st37{clip-path:url(#SVGID_12_);}
	.st38{fill:#D24D57;}
	.st39{fill:#F27935;}
	.st40{fill:#1E8BC3;}
	.st41{fill:#674172;}
	.st42{fill:#95A5A6;}
	.st43{fill:#67809F;}
	.st44{fill:#03C9A9;}
	.st45{fill:#D2527F;}
	.st46{fill:#F89406;}
	.st47{fill:#BF55EC;}
	.st48{fill:#6BB9F0;}
	.st49{fill:#4183D7;}
	.st50{fill:#F7CA18;}
	.st51{fill:#6C7A89;}
	.st52{fill:none;stroke:#D1D3D4;stroke-linecap:round;stroke-miterlimit:10;}
	.st53{fill:none;stroke:#FFFFFF;stroke-linecap:round;stroke-linejoin:round;stroke-miterlimit:10;}
	.st54{fill-rule:evenodd;clip-rule:evenodd;fill:#231F20;}
	.st55{fill-rule:evenodd;clip-rule:evenodd;fill:#CC3333;}
	.st56{fill-rule:evenodd;clip-rule:evenodd;fill:#FFFFFF;}
	.st57{clip-path:url(#SVGID_16_);}
	.st58{clip-path:url(#SVGID_18_);}
	.st59{clip-path:url(#SVGID_20_);}
	.st60{clip-path:url(#SVGID_22_);}
</style>
<g id="backgrounds">
</g>
<g id="art">
	<g>
		<polygon id="shadow_31_" class="st16" points="11.8,0.4 0,0.4 0,24.1 16.9,24.1 16.9,19.9 16.9,5.5 		"/>
		<rect y="19.5" class="st38" width="16.9" height="4.2"/>
		<g id="text_32_">
			<path class="st18" d="M1.2,22.6c-0.1,0-0.2-0.1-0.2-0.2c0-0.1,0.1-0.2,0.2-0.2c0.1,0,0.2,0.1,0.2,0.2C1.4,22.6,1.3,22.6,1.2,22.6
				L1.2,22.6z"/>
			<path class="st18" d="M1.6,21.1c0.1,0,0.3,0,0.4,0c0.2,0,0.4,0,0.5,0.1c0.1,0.1,0.1,0.2,0.1,0.3c0,0.2-0.1,0.3-0.3,0.4v0
				c0.1,0,0.2,0.1,0.2,0.3c0,0.2,0.1,0.4,0.1,0.4H2.4c0,0-0.1-0.2-0.1-0.4C2.3,22.1,2.2,22,2,22H1.9v0.6H1.6V21.1z M1.9,21.8h0.2
				c0.2,0,0.3-0.1,0.3-0.2c0-0.2-0.1-0.2-0.3-0.2c-0.1,0-0.1,0-0.2,0V21.8z"/>
			<path class="st18" d="M3.2,22.2l-0.1,0.4H2.8l0.5-1.5h0.4l0.5,1.5H3.8l-0.1-0.4H3.2z M3.7,22l-0.1-0.4c0-0.1-0.1-0.2-0.1-0.3h0
				c0,0.1,0,0.2-0.1,0.3L3.3,22H3.7z"/>
			<path class="st18" d="M4.3,21.1c0.1,0,0.3,0,0.4,0c0.2,0,0.4,0,0.5,0.1c0.1,0.1,0.1,0.2,0.1,0.3c0,0.2-0.1,0.3-0.3,0.4v0
				c0.1,0,0.2,0.1,0.2,0.3c0,0.2,0.1,0.4,0.1,0.4H5.1c0,0-0.1-0.2-0.1-0.4C5,22.1,4.9,22,4.8,22H4.6v0.6H4.3V21.1z M4.6,21.8h0.2
				c0.2,0,0.3-0.1,0.3-0.2c0-0.2-0.1-0.2-0.3-0.2c-0.1,0-0.1,0-0.2,0V21.8z"/>
		</g>
		<polygon class="st19" points="0,0 0,19.5 16.9,19.5 16.9,5.1 11.8,0 		"/>
		<g>
			<g>
				<rect x="2.9" y="12.8" class="st20" width="1.7" height="1.9"/>
				<rect x="7.2" y="12.8" class="st20" width="6.9" height="1.9"/>
			</g>
			<g>
				<polygon class="st20" points="4.5,8.6 4.7,8.6 4.7,8.2 2.9,8.2 2.9,10.1 4.5,10.1 				"/>
				<polygon class="st20" points="7.2,8.2 7.2,8.6 7.4,8.6 7.4,10.1 14.2,10.1 14.2,8.2 				"/>
			</g>
			<g>
				<polygon class="st20" points="7.4,10.5 7.4,11.2 7.2,11.2 7.2,12.4 14.2,12.4 14.2,10.5 				"/>
				<polygon class="st20" points="4.5,11.2 4.5,10.5 2.9,10.5 2.9,12.4 4.7,12.4 4.7,11.2 				"/>
			</g>
			<polygon class="st20" points="4.8,9 4.8,10.8 5.7,10.8 5.7,10.1 6.1,10.1 6.1,10.8 7,10.8 7,9 			"/>
			<g>
				<rect x="5" y="7.7" class="st20" width="1.9" height="0.9"/>
				<path class="st20" d="M5,11.2v3.7h1.9v-3.7H5z M5.9,12.4c-0.2,0-0.3-0.1-0.3-0.3c0-0.2,0.1-0.3,0.3-0.3s0.3,0.1,0.3,0.3
					C6.3,12.2,6.1,12.4,5.9,12.4z"/>
			</g>
		</g>
		<polygon class="st19" points="16.9,10.3 16.9,5.2 11.9,5.2 		"/>
		<polygon class="st21" points="11.8,0 11.9,5.2 16.9,5.1 		"/>
	</g>
</g>
<g id="navigation">
</g>
<g id="assets">
</g>
</svg>
