<?xml version="1.0" encoding="utf-8"?>
<!-- Generator: Adobe Illustrator 19.2.1, SVG Export Plug-In . SVG Version: 6.00 Build 0)  -->
<svg version="1.1" xmlns="http://www.w3.org/2000/svg" xmlns:xlink="http://www.w3.org/1999/xlink" x="0px" y="0px"
	 viewBox="0 0 17.3 24.1" style="enable-background:new 0 0 17.3 24.1;" xml:space="preserve">
<style type="text/css">
	.st0{opacity:4.000000e-02;fill:url(#);}
	.st1{fill:#F1F2F2;}
	.st2{fill:#992626;}
	.st3{fill:#FF9933;}
	.st4{fill:#FFFFFF;}
	.st5{fill:#FF3399;}
	.st6{clip-path:url(#SVGID_4_);}
	.st7{fill:#414042;}
	.st8{fill:#F16A5F;}
	.st9{fill:#8A73B4;}
	.st10{fill:#1BB899;}
	.st11{fill:#475F77;}
	.st12{fill:#58595B;}
	.st13{fill:#231F20;}
	.st14{fill:#CC3333;}
	.st15{fill:none;stroke:#939598;stroke-width:0.25;stroke-miterlimit:10;}
	.st16{opacity:0.3;fill:#7A7A7A;}
	.st17{fill:#EF4836;}
	.st18{fill:#F9F4F7;}
	.st19{fill:#E8E8E8;}
	.st20{fill:#ABB7B7;}
	.st21{fill:#EFEFEF;}
	.st22{fill:#F2784B;}
	.st23{fill:#90C695;}
	.st24{fill:#2ECC71;}
	.st25{fill:#446CB3;}
	.st26{fill-rule:evenodd;clip-rule:evenodd;fill:#FF9933;}
	.st27{fill:none;stroke:#231F20;stroke-width:0.25;stroke-miterlimit:10;}
	.st28{fill:#A7A9AC;}
	.st29{fill:none;stroke:#FFFFFF;stroke-width:2;stroke-linecap:round;stroke-linejoin:round;stroke-miterlimit:10;}
	.st30{clip-path:url(#SVGID_6_);}
	.st31{clip-path:url(#SVGID_8_);}
	.st32{clip-path:url(#SVGID_10_);}
	.st33{opacity:0.4;}
	.st34{opacity:0.5;}
	.st35{fill:#E73790;}
	.st36{fill:#B71F39;}
	.st37{clip-path:url(#SVGID_12_);}
	.st38{fill:#D24D57;}
	.st39{fill:#F27935;}
	.st40{fill:#1E8BC3;}
	.st41{fill:#674172;}
	.st42{fill:#95A5A6;}
	.st43{fill:#67809F;}
	.st44{fill:#03C9A9;}
	.st45{fill:#D2527F;}
	.st46{fill:#F89406;}
	.st47{fill:#BF55EC;}
	.st48{fill:#6BB9F0;}
	.st49{fill:#4183D7;}
	.st50{fill:#F7CA18;}
	.st51{fill:#6C7A89;}
	.st52{fill:none;stroke:#D1D3D4;stroke-linecap:round;stroke-miterlimit:10;}
	.st53{fill:none;stroke:#FFFFFF;stroke-linecap:round;stroke-linejoin:round;stroke-miterlimit:10;}
	.st54{fill-rule:evenodd;clip-rule:evenodd;fill:#231F20;}
	.st55{fill-rule:evenodd;clip-rule:evenodd;fill:#CC3333;}
	.st56{fill-rule:evenodd;clip-rule:evenodd;fill:#FFFFFF;}
	.st57{clip-path:url(#SVGID_16_);}
	.st58{clip-path:url(#SVGID_18_);}
	.st59{clip-path:url(#SVGID_20_);}
	.st60{clip-path:url(#SVGID_22_);}
</style>
<g id="backgrounds">
</g>
<g id="art">
	<g>
		<polygon id="shadow" class="st16" points="12.2,0.4 0.4,0.4 0.4,24.1 17.3,24.1 17.3,19.9 17.3,5.5 		"/>
		<rect y="19.5" class="st25" width="16.9" height="4.2"/>
		<g id="text">
			<path class="st18" d="M1.2,22.6c-0.1,0-0.2-0.1-0.2-0.2c0-0.1,0.1-0.2,0.2-0.2c0.1,0,0.2,0.1,0.2,0.2C1.4,22.6,1.3,22.6,1.2,22.6
				L1.2,22.6z"/>
			<path class="st18" d="M1.6,21.1c0.1,0,0.3,0,0.4,0c0.3,0,0.5,0.1,0.6,0.2c0.1,0.1,0.2,0.3,0.2,0.6c0,0.3-0.1,0.5-0.2,0.6
				c-0.1,0.1-0.4,0.2-0.7,0.2c-0.2,0-0.3,0-0.4,0V21.1z M1.9,22.4c0,0,0.1,0,0.2,0c0.4,0,0.6-0.2,0.6-0.6c0-0.3-0.2-0.5-0.5-0.5
				c-0.1,0-0.1,0-0.2,0V22.4z"/>
			<path class="st18" d="M4.5,21.8c0,0.5-0.3,0.8-0.7,0.8c-0.4,0-0.7-0.3-0.7-0.8c0-0.5,0.3-0.8,0.7-0.8C4.2,21.1,4.5,21.4,4.5,21.8
				z M3.4,21.9c0,0.3,0.2,0.6,0.4,0.6c0.3,0,0.4-0.2,0.4-0.6c0-0.3-0.1-0.6-0.4-0.6C3.5,21.3,3.4,21.6,3.4,21.9z"/>
			<path class="st18" d="M5.8,22.6c-0.1,0-0.2,0.1-0.4,0.1c-0.5,0-0.8-0.3-0.8-0.8c0-0.5,0.3-0.8,0.8-0.8c0.2,0,0.3,0,0.4,0.1
				l-0.1,0.2c-0.1,0-0.2-0.1-0.3-0.1c-0.3,0-0.5,0.2-0.5,0.6c0,0.3,0.2,0.5,0.5,0.5c0.1,0,0.2,0,0.3-0.1L5.8,22.6z"/>
		</g>
		<polygon class="st19" points="0,0 0,19.5 16.9,19.5 16.9,5.1 11.8,0 		"/>
		<g>
			<rect x="7.9" y="6.5" class="st20" width="6.3" height="0.8"/>
			<rect x="7.9" y="8.6" class="st20" width="6.3" height="0.8"/>
			<rect x="2.8" y="10.7" class="st20" width="11.4" height="0.8"/>
			<rect x="2.8" y="12.7" class="st20" width="11.4" height="0.8"/>
			<rect x="2.8" y="14.8" class="st20" width="5.7" height="0.8"/>
			<g>
				<path class="st20" d="M3.8,6.5L4,7.7C4,8,4.1,8.3,4.2,8.6h0c0.1-0.3,0.1-0.7,0.2-0.9l0.3-1.2h0.7l0.3,1.1c0.1,0.3,0.2,0.6,0.2,1
					h0c0-0.3,0.1-0.7,0.2-1l0.2-1.1h0.9L6.3,9.4H5.5l-0.3-1C5.1,8.1,5.1,7.8,5,7.5h0C4.9,7.8,4.9,8.1,4.8,8.3l-0.3,1H3.7L2.8,6.5
					H3.8z"/>
			</g>
		</g>
		<polygon class="st19" points="16.9,10.3 16.9,5.2 11.9,5.2 		"/>
		<polygon class="st21" points="11.8,0 11.9,5.2 16.9,5.1 		"/>
	</g>
</g>
<g id="navigation">
</g>
<g id="assets">
</g>
</svg>
